General
Complete name                    : SA Finale - Victor Ratnayake - DVDRip - x264 - 1GB - [HoRu].mkv
Source				 : DVD-9
Format                           : Matroska
File size                        : 1 018 MiB
Duration                         : 2h 52mn
Overall bit rate                 : 825 Kbps
Ripper				 : SaraDiel

Video
Format                           : AVC
Format/Info                      : Advanced Video Codec
Format profile                   : High@L3.1
Format settings, ReFrames        : 8 frames
Codec ID                         : V_MPEG4/ISO/AVC
Bit rate                         : 600 Kbps
Width                            : 720 pixels
Height                           : 544 pixels
Display aspect ratio             : 4:3
Frame rate                       : 25.000 fps
Stream size                      : 722 MiB (71%)

Audio
Format                           : AC-3 (Untouched)
Format/Info                      : Audio Coding 3
Mode extension                   : CM (complete main)
Codec ID                         : A_AC3
Bit rate mode                    : Constant
Bit rate                         : 224 Kbps
Channel(s)                       : 2 channels
Channel positions                : Front: L R
Sampling rate                    : 48.0 KHz
Stream size                      : 277 MiB (27%)

Chapetrs
00:00:00.000                     : Prasthavanava
00:13:02.200                     : Sthrothaya
00:15:39.440                     : Api Okkoma
00:19:45.840                     : Devram Vehere
00:23:37.200                     : Numbe Namin
00:33:17.800                     : Adaraye Ulpatha
00:42:00.680                     : Nangiye Malliye
00:46:11.640                     : Sihil Sulan
00:51:16.960                     : Amba Gas Yata
00:59:23.280                     : Epa Hiru Payanna
01:03:01.920                     : Daiwayogayakin
01:08:16.960                     : Hopalu Wanapetha
01:17:03.480                     : Tharu Ath Akurin
01:20:30.880                     : Pawe Wala
01:27:29.960                     : Sigiri Landakage
01:32:28.480                     : Thani Tharuwe
01:40:17.160                     : Podi Kumarihami
01:45:40.120                     : Mayurasana
01:49:15.160                     : Sihina Sathak
01:52:35.880                     : Kohe Sita
01:55:29.200                     : Ruwan Nidana
02:02:30.680                     : Soka Sanasum
02:06:13.760                     : Obe Dethol
02:09:48.000                     : Sangawaganu
02:13:49.960                     : Thotupola
02:20:24.920                     : Koheda Koheda
02:28:14.640                     : Ma Landawatha
02:38:54.240                     : Andura Bindinnata
02:43:06.640                     : Bindumathee
02:46:09.320                     : Api okkoma Rajawaru

Visit us @


Got something we might be interested in?(Sinhala DVD, Audio CD...)

Contact us at: apihoru@hush.ai


ApiHoRu ~ Bringing Smiles To  Ceylon People Around The Globe !!